<svg width="100" height="104" viewBox="0 0 100 104" fill="none" xmlns="http://www.w3.org/2000/svg">
<g id="noun-dog-bowl-2416970 1">
<g id="Group">
<path id="Vector" d="M84.5476 47.0215C87.0684 48.4255 87.7134 50.7856 88.14 53.2898C88.6396 56.2228 89.071 59.1751 89.757 62.0655C90.1388 63.6742 91.7401 63.3433 92.8611 63.1625C96.6461 62.5522 97.8412 64.0103 96.9036 67.7248C95.9026 71.6905 93.2048 73.0822 89.5419 73.4141C83.5995 73.9526 77.6662 74.6421 71.7129 74.9932C66.2779 75.3137 60.8206 75.3914 55.3745 75.3553C48.6397 75.3107 41.9065 75.033 35.1723 74.8658C28.6527 74.7041 22.1308 74.6107 15.6139 74.3751C12.5847 74.269 9.56278 74.0109 6.55946 73.6019C3.4647 73.1764 2.61552 72.1574 2.821 69.1284C2.93727 67.2333 3.31912 65.3639 3.95538 63.575C4.18764 63.1294 4.52073 62.7442 4.92812 62.45C5.33551 62.1558 5.80596 61.9608 6.302 61.8805C6.59014 61.9052 6.88027 61.8703 7.15437 61.778C7.42846 61.6858 7.68066 61.5382 7.89529 61.3444C8.10993 61.1505 8.28242 60.9147 8.40205 60.6514C8.52168 60.3881 8.58589 60.103 8.5907 59.8138C8.99183 57.6164 9.54818 55.4477 10.01 53.2607C10.2413 52.1654 10.0762 50.82 10.6632 49.9955C13.0007 46.7129 16.5189 46.0407 20.2615 46.3705C20.7154 46.4498 21.1812 46.4277 21.6256 46.306C22.07 46.1842 22.482 45.9657 22.8321 45.6661C23.7865 44.8077 24.9923 44.2799 26.2704 44.1609C27.5485 44.0418 28.8309 44.338 29.9275 45.0054C33.7892 47.551 37.2231 46.282 40.8885 44.9255C46.7851 42.7433 52.722 40.6696 58.6469 38.5639C60.711 37.8303 62.7836 37.1207 64.8647 36.4351C65.3863 36.3044 65.8488 36.0021 66.178 35.5769C66.5071 35.1517 66.6838 34.6282 66.6796 34.0905C66.9685 29.8833 69.7693 27.2343 72.8747 25.071C74.5182 23.9262 76.4497 25.3058 78.0254 26.2087C79.888 27.2758 80.3369 29.1849 80.3045 31.1791C80.2279 31.7838 80.3405 32.3974 80.6267 32.9355C80.9129 33.4736 81.3587 33.91 81.9028 34.1845C84.1339 35.4726 85.3218 37.7533 86.2703 40.0231C87.1344 42.0908 85.6755 43.9237 85.0787 45.8236C84.9255 46.2331 84.7482 46.633 84.5476 47.0215ZM9.545 62.8726C9.31026 64.5119 10.587 65.2132 11.7386 65.5113C15.8062 66.5644 19.9 67.576 24.0391 68.2773C28.0112 68.9503 32.0436 69.3259 36.0647 69.635C40.5496 69.9797 45.0505 70.2467 49.5464 70.2792C53.7109 70.3094 57.8818 70.0501 62.043 69.8017C67.8253 69.4566 73.6034 69.0444 79.3772 68.5653C81.0587 68.4629 82.7159 68.1128 84.2951 67.5263C85.8183 66.77 87.2724 65.8819 88.6407 64.872L88.5914 64.5033C87.1603 64.9836 85.7293 65.464 84.2983 65.9443C84.2005 65.72 84.1027 65.4957 84.0049 65.2713C84.9698 64.6781 85.9606 64.1221 86.8876 63.4748C87.3529 63.2307 87.7078 62.8186 87.8803 62.3223C87.7801 61.356 87.5938 60.4006 87.3237 59.4674C85.923 59.97 84.668 60.4201 83.413 60.8703L83.0429 60.1876L86.9793 57.3758C85.4874 57.3945 84.5614 59.0848 82.7797 58.4969C83.68 56.4269 87.0011 56.3818 86.5804 53.7446C84.9979 54.3022 83.5275 54.9375 81.9954 55.3359C78.8631 56.1505 75.7179 56.9448 72.5396 57.5431C70.0594 58.01 67.5226 58.1818 65.0081 58.4598C62.5543 58.7311 60.101 59.1215 57.64 59.189C53.9868 59.2893 50.3266 59.1782 46.6704 59.104C44.5974 59.062 42.5242 58.9465 40.4549 58.8069C36.3668 58.5314 32.2641 58.3615 28.1997 57.8766C24.1102 57.3885 20.049 56.6296 15.9982 55.8678C14.4167 55.482 12.8584 55.0064 11.331 54.4435C10.9786 55.6574 11.2162 56.3055 12.3082 56.681C13.1567 57.027 13.9824 57.4263 14.7805 57.8765L14.5339 58.5895C13.4011 58.4558 12.2683 58.3221 11.1356 58.1884C11.8004 58.6605 12.5677 58.8636 13.181 59.2888C13.4544 59.6633 13.6323 60.0989 13.6992 60.5577C13.3167 60.6759 12.9198 60.7409 12.5197 60.7508C11.8259 60.6448 11.138 60.5036 10.4587 60.3276L10.3299 60.7371C11.3202 61.2848 12.3106 61.8325 13.3009 62.3802L13.0289 63.0519C11.9431 62.996 10.8574 62.9401 9.545 62.8726ZM75.9946 36.4692C76.3607 35.8446 76.6903 35.1994 76.9816 34.5367C77.4737 33.388 77.8321 32.1866 78.0498 30.9561C78.1498 30.301 78.021 29.6315 77.6851 29.0603C77.3492 28.489 76.8266 28.0511 76.2055 27.8201C75.5427 27.5069 74.807 27.3802 74.0776 27.4536C73.3482 27.527 72.6526 27.7978 72.0655 28.2368C70.9521 29.0573 70.037 30.1172 69.3876 31.3384C68.7383 32.5596 68.3713 33.9109 68.3137 35.2928C68.3265 35.8009 68.1668 36.2984 67.8607 36.7042C67.5546 37.11 67.12 37.4002 66.6279 37.5274C64.1247 38.3508 61.618 39.1666 59.1363 40.0514C51.2081 42.8781 43.2791 45.7039 35.3823 48.6163C34.931 48.801 34.4409 48.8703 33.9562 48.8179C33.4714 48.7654 33.0074 48.5929 32.6061 48.316C31.0622 47.4373 29.4216 46.7403 27.7173 46.2389C26.8244 45.942 25.8569 45.9591 24.9751 46.2873C24.0933 46.6156 23.3501 47.2353 22.8687 48.0438C22.032 49.5496 22.3693 50.8955 24.0451 52.7361C25.5529 54.3921 25.5529 54.3921 25.2876 56.381C26.9871 56.6719 28.708 56.8198 30.4321 56.8231C33.1074 56.6236 36.0438 58.4685 38.453 55.9177C38.5946 55.8241 38.7568 55.7663 38.9257 55.7493C42.8722 54.6851 46.8581 53.7468 50.7557 52.5264C54.8742 51.2369 58.9472 49.7776 62.9668 48.2051C65.83 47.0851 68.5541 45.6131 71.3871 44.4082C71.9767 44.314 72.5801 44.4468 73.0758 44.7797C74.6291 45.6318 76.0235 46.9626 77.6703 47.418C81.576 48.498 85.7261 44.3286 84.5434 40.544C83.9254 38.9724 83.0057 37.5371 81.8361 36.3189C80.8517 35.1664 79.5666 34.7213 78.1701 36.0215C77.8026 36.3635 77.0342 36.2749 75.9946 36.4692ZM90.6908 65.1046C90.9961 66.7803 89.8988 67.3433 88.6376 67.7025C86.5373 68.3007 84.4483 68.9867 82.3078 69.3827C79.6619 69.8721 76.976 70.1929 74.2934 70.4276C68.3674 70.9461 62.4384 71.4789 56.4993 71.7833C52.7405 71.976 48.9591 71.8366 45.1917 71.7204C41.0939 71.594 36.9836 71.4878 32.9098 71.0696C28.2786 70.5942 23.6505 69.9462 19.0798 69.0676C15.2912 68.3394 11.5848 67.1784 7.85419 66.1641C7.72386 66.0715 7.61467 65.9522 7.53381 65.8143C7.45295 65.6764 7.40226 65.5228 7.3851 65.3638C7.31054 64.6921 7.27302 64.0167 7.27271 63.3408C6.77526 63.6493 6.30598 64.001 5.87032 64.3918C4.50549 65.9212 4.5479 67.7773 4.67568 69.6704C4.65712 70.1846 4.83397 70.6868 5.17066 71.076C5.50735 71.4651 5.97891 71.7123 6.49048 71.7679C8.02811 72.0848 9.58544 72.2971 11.1518 72.4034C15.2439 72.5501 19.3433 72.4997 23.4349 72.6547C28.9425 72.8633 34.4429 73.2802 39.9512 73.4455C47.1986 73.663 54.4526 73.8843 61.7003 73.8022C68.1766 73.7288 74.6594 73.3899 81.1174 72.8862C84.6942 72.5317 88.2436 71.9405 91.7422 71.1166C94.5381 70.5182 95.9441 67.5966 94.9943 64.7122C93.6896 64.8312 92.3579 64.9526 90.6908 65.1046ZM75.0088 55.9901C78.0241 55.0627 80.919 54.3578 83.6383 53.2295C84.1315 52.9227 84.551 52.511 84.8669 52.0236C85.1828 51.5361 85.3873 50.985 85.4659 50.4095C85.6149 49.114 84.2626 48.6083 83.091 48.5349C82.4747 48.4964 81.8391 48.9877 81.2021 49.0164C78.098 49.1562 75.1433 48.7018 72.5955 46.6913C72.4024 46.5579 72.1829 46.4674 71.9518 46.4259C71.7208 46.3844 71.4835 46.3929 71.256 46.4508C70.2056 46.8252 69.215 47.3675 68.0805 47.8999C69.3132 48.1975 70.3428 48.4751 71.3852 48.6896C72.4279 48.9041 73.5037 48.979 74.5293 49.2502C76.9107 49.8797 77.62 51.7641 76.3115 53.7663C75.8854 54.4184 75.521 55.1109 75.0088 55.9901ZM15.3234 53.8237C16.1868 51.8854 17.4917 50.8569 19.5872 51.0075C20.641 51.0833 20.8174 50.4227 20.8585 49.4769C20.9043 48.4244 20.4968 47.8794 19.5462 48.0535C17.7278 48.2975 15.9435 48.7498 14.2285 49.4017C13.2184 49.8455 11.9235 51.0338 11.8716 51.951C11.786 53.4606 13.5301 53.4209 14.7143 53.67C14.8723 53.7032 15.0277 53.7486 15.3234 53.8237Z" fill="black"/>
<path id="Vector_2" d="M87.2393 61.4899C86.318 62.1241 85.4159 62.7914 84.4509 63.3499C84.2728 63.3012 84.1072 63.2152 83.9649 63.0975C83.8227 62.9798 83.7072 62.8331 83.626 62.6673C83.694 61.8869 86.0213 60.8101 87.2393 61.4899Z" fill="black"/>
<path id="Vector_3" d="M10.8571 63.2578L14.1663 63.5268L14.1279 64.1474C13.0054 64.4027 11.8771 64.8205 10.793 64.0159L10.8571 63.2578Z" fill="black"/>
</g>
</g>
</svg>
