<svg width="90" height="84" viewBox="0 0 90 84" fill="none" xmlns="http://www.w3.org/2000/svg">
<g id="tablets">
<g id="Group">
<g id="Group_2">
<path id="Vector" d="M30.1013 58.2313C26.5499 59.4004 24.2351 59.9408 23.8571 60.0291C23.8013 60.0417 23.8949 60.0147 23.8319 60.0309C15.5501 62.3005 9.44266 59.7733 5.82106 55.2411C4.33246 53.3786 3.27226 51.1846 2.65846 48.85C2.04466 46.5191 1.87366 44.0459 2.16706 41.6249C2.94106 35.1978 6.94966 29.1129 14.5727 26.9297L66.0743 12.1786C70.6139 10.8781 75.2723 11.5554 79.1225 13.6936C82.9727 15.8317 86.0129 19.4308 87.3125 23.9755L87.3431 24.0836V24.0872C88.3547 27.7151 88.1099 31.415 86.8697 34.715C85.5881 38.1285 83.2391 41.1133 80.1143 43.1398L79.2521 41.8123C82.0889 39.9713 84.2219 37.2603 85.3883 34.1566C86.5241 31.134 86.7383 27.7385 85.7861 24.4096C84.6071 20.2846 81.8477 17.0188 78.3539 15.0788C74.8619 13.1388 70.6319 12.5245 66.5081 13.7062L15.0065 28.4554C8.08546 30.4387 4.44586 35.9688 3.74206 41.8105C3.47206 44.0405 3.62866 46.3102 4.19026 48.4465C4.75006 50.5775 5.71126 52.5734 7.05406 54.254C10.3085 58.325 15.8453 60.5803 23.4161 58.5051C23.4899 58.4853 23.4917 58.4835 23.4971 58.4835C23.8643 58.3971 26.1089 57.8747 29.6063 56.7218L30.1013 58.2313Z" fill="#191C1B"/>
<path id="Vector_2" d="M56.363 29.6045C63.9572 29.6045 70.8386 32.3317 75.8264 36.7413C80.8412 41.1726 83.9408 47.3007 83.9408 54.0755C83.9408 60.8503 80.8412 66.9784 75.8264 71.4115C70.8386 75.8211 63.9572 78.5483 56.363 78.5483C49.4888 78.5483 43.196 76.3129 38.3666 72.6184C33.449 68.8572 30.0452 63.5811 29.0714 57.6043C28.976 57.0135 28.904 56.4262 28.8572 55.8462C28.8104 55.2554 28.7852 54.6663 28.7852 54.0755C28.7852 47.3007 31.8866 41.1726 36.8996 36.7413C41.8874 32.3317 48.7706 29.6045 56.363 29.6045ZM74.7788 37.9266C70.0736 33.7656 63.563 31.1933 56.363 31.1933C49.1648 31.1933 42.6542 33.7656 37.949 37.9266C33.2672 42.0643 30.3728 47.7745 30.3728 54.0755C30.3728 54.6339 30.3944 55.1833 30.4394 55.7219C30.4844 56.2803 30.5492 56.8243 30.6356 57.3485C31.541 62.9146 34.7234 67.8376 39.3278 71.3592C43.889 74.8484 49.8452 76.9596 56.363 76.9596C63.563 76.9596 70.0736 74.3855 74.7788 70.2262C79.4588 66.0886 82.355 60.3783 82.355 54.0755C82.355 47.7745 79.4588 42.0643 74.7788 37.9266Z" fill="#191C1B"/>
<path id="Vector_3" d="M56.3633 29.6045C63.4013 29.6045 69.7823 31.7949 74.4101 35.3363C79.0991 38.9228 81.9989 43.8962 81.9989 49.4047C81.9989 54.9149 79.0991 59.8866 74.4101 63.4748C69.7823 67.0162 63.4013 69.2066 56.3633 69.2066C49.3271 69.2066 42.9461 67.0162 38.3183 63.4748C33.6293 59.8866 30.7295 54.9149 30.7295 49.4047C30.7295 43.8962 33.6293 38.9228 38.3183 35.3363C42.9461 31.7949 49.3271 29.6045 56.3633 29.6045ZM73.4489 36.5954C69.0857 33.2576 63.0467 31.1933 56.3633 31.1933C49.6817 31.1933 43.6409 33.2576 39.2795 36.5954C34.9775 39.8865 32.3171 44.4168 32.3171 49.4047C32.3171 54.3943 34.9775 58.9229 39.2795 62.2157C43.6409 65.5536 49.6817 67.6179 56.3633 67.6179C63.0467 67.6179 69.0857 65.5536 73.4489 62.2157C77.7509 58.9229 80.4113 54.3943 80.4113 49.4047C80.4113 44.4168 77.7509 39.8865 73.4489 36.5954Z" fill="#191C1B"/>
<path id="Vector_4" d="M33.5342 57.3915C39.0584 50.8725 45.2342 46.1764 51.9842 42.707C58.7126 39.2503 66.0008 37.0221 73.7786 35.4297L74.0936 36.9806C66.4454 38.5478 59.2886 40.7328 52.7024 44.1157C46.1378 47.4896 40.1276 52.0631 34.742 58.4146L33.5342 57.3915Z" fill="#191C1B"/>
<path id="Vector_5" d="M41.4414 64.4872C45.9306 58.4006 52.137 52.6021 59.5296 48.7563C65.7972 45.4977 72.918 43.6351 80.5752 44.1701L80.4708 45.7534C73.1268 45.2383 66.2886 47.0306 60.2622 50.1649C53.0856 53.8972 47.0664 59.521 42.7122 65.4239L41.4414 64.4872Z" fill="#191C1B"/>
<path id="Vector_6" d="M39.6519 20.8881C39.4125 22.9561 39.4539 25.0708 39.8517 27.2198C40.2495 29.3706 41.0055 31.5682 42.1935 33.8073L40.7931 34.5512C39.5295 32.1734 38.7231 29.8209 38.2947 27.5044C37.8663 25.1879 37.8195 22.92 38.0769 20.708L39.6519 20.8881Z" fill="#191C1B"/>
<path id="Vector_7" d="M42.021 27.3006C41.787 26.6035 41.6196 25.9406 41.5242 25.2615C41.427 24.5788 41.4018 23.8871 41.4486 23.1377L41.4828 22.5847L64.179 15.7991L64.5066 15.7018C66.2058 15.1921 67.8474 14.7003 69.6816 14.5256C70.5366 14.4445 71.3898 14.4139 72.1908 14.4463C73.4544 14.4986 74.6064 14.7021 75.4776 15.0984C76.5144 15.5704 77.1894 16.3035 77.2884 17.3537C77.2992 17.4726 77.3028 17.5914 77.2992 17.7139C77.202 20.1097 74.7144 20.0322 72.7866 19.9728C72.4608 19.962 72.1548 19.953 71.9064 19.9584C70.2216 20.0016 69.318 20.034 68.4828 20.1727C67.662 20.3078 66.8466 20.5582 65.3382 21.032H65.331L42.2676 28.0283L42.021 27.3006ZM43.092 25.0435C43.1406 25.384 43.2108 25.7208 43.3008 26.0631L64.8666 19.5189C66.4362 19.0235 67.2894 18.7641 68.2272 18.6092C69.1506 18.4561 70.101 18.42 71.8686 18.3768C72.162 18.3696 72.486 18.3786 72.8298 18.3894C74.0754 18.4291 75.6846 18.4777 75.717 17.6527C75.7188 17.5986 75.7188 17.5482 75.7134 17.5014C75.6756 17.0961 75.3426 16.7808 74.826 16.5449C74.1438 16.235 73.1952 16.0729 72.1296 16.0297C71.397 15.9991 70.6158 16.0261 69.8292 16.1017C68.1696 16.2603 66.591 16.7322 64.9602 17.2222L64.6308 17.3194L43.011 23.7844C43.0074 24.2203 43.0344 24.6346 43.092 25.0435Z" fill="#191C1B"/>
<path id="Vector_8" d="M34.9969 28.558C34.8727 28.1059 34.7773 27.67 34.7143 27.2214C34.6657 26.8612 34.6369 26.4973 34.6333 26.1136L15.0313 32.1409C11.3035 33.5027 9.77711 35.0986 9.41711 36.3614C9.30191 36.7685 9.31991 37.1233 9.42611 37.4025C9.51791 37.6439 9.67451 37.8241 9.86171 37.9231C10.0975 38.0474 10.4035 38.0276 10.6879 37.8006C11.1739 37.4134 11.4799 37.0603 11.7589 36.7397C12.4825 35.9074 13.0531 35.2518 15.5065 34.5024L34.9969 28.558ZM36.2839 27.0035C36.3649 27.5943 36.5215 28.178 36.7357 28.839L36.9841 29.6046L15.9655 36.0173C13.9585 36.6298 13.5157 37.1377 12.9559 37.7826C12.6355 38.1501 12.2845 38.5536 11.6743 39.0418C10.8463 39.7028 9.89411 39.7317 9.12371 39.3264C8.60351 39.0526 8.17691 38.5752 7.94291 37.961C7.72511 37.3845 7.67651 36.6856 7.89251 35.9273C8.36771 34.2574 10.1893 32.2201 14.5093 30.6458L14.5453 30.6332L36.3901 23.916L36.2659 25.1049C36.1921 25.8182 36.2029 26.4217 36.2839 27.0035Z" fill="#191C1B"/>
</g>
</g>
</g>
</svg>
